<svg xmlns="http://www.w3.org/2000/svg" width="1200" height="500" aria-label="サッカー作戦盤"><defs><linearGradient id="a" x1="0" y1="0" x2="1" y2="1"><stop offset="0" stop-color="hsl(145, 63%, 42%)"/><stop offset="1" stop-color="hsl(160, 64%, 22%)"/></linearGradient><pattern id="b" width="34" height="34" patternUnits="userSpaceOnUse"><circle cx="3" cy="3" r="3" fill="#fff" opacity=".1"/></pattern></defs><path fill="url(#a)" d="M0 0h1200v500H0z"/><path fill="url(#b)" d="M880 270h320v230H880z"/><circle cx="1000" cy="250" r="120" fill="none" stroke="#fff" stroke-width="3" opacity=".5"/><path stroke="#fff" stroke-width="3" opacity=".5" d="M880 250h240"/><circle cx="1000" cy="250" r="6" fill="#fff" opacity=".7"/><rect x="72" y="64" width="46" height="6" rx="3" fill="#fff" opacity=".9"/><text x="72" y="108" font-family="'Hiragino Sans','Hiragino Kaku Gothic ProN','Noto Sans JP','Yu Gothic','Meiryo',system-ui,sans-serif" font-size="26" font-weight="700" letter-spacing="3" fill="#fff" opacity=".85">KENZO0107.GITHUB.IO</text><text x="72" y="292" font-family="'Hiragino Sans','Hiragino Kaku Gothic ProN','Noto Sans JP','Yu Gothic','Meiryo',system-ui,sans-serif" font-size="120" font-weight="800" fill="#fff">サッカー作戦盤</text><rect x="72" y="392" width="209" height="44" rx="22" fill="#fff" opacity=".16"/><text x="176.5" y="423.36" text-anchor="middle" font-family="'Hiragino Sans','Hiragino Kaku Gothic ProN','Noto Sans JP','Yu Gothic','Meiryo',system-ui,sans-serif" font-size="26" font-weight="600" fill="#fff">個人開発</text><rect x="295" y="392" width="89" height="44" rx="22" fill="#fff" opacity=".16"/><text x="339.5" y="423.36" text-anchor="middle" font-family="'Hiragino Sans','Hiragino Kaku Gothic ProN','Noto Sans JP','Yu Gothic','Meiryo',system-ui,sans-serif" font-size="26" font-weight="600" fill="#fff">JS</text><rect x="398" y="392" width="134" height="44" rx="22" fill="#fff" opacity=".16"/><text x="465" y="423.36" text-anchor="middle" font-family="'Hiragino Sans','Hiragino Kaku Gothic ProN','Noto Sans JP','Yu Gothic','Meiryo',system-ui,sans-serif" font-size="26" font-weight="600" fill="#fff">Canvas</text></svg>