<?xml version="1.0" standalone="no"?>
<!DOCTYPE svg PUBLIC "-//W3C//DTD SVG 20010904//EN"
 "http://www.w3.org/TR/2001/REC-SVG-20010904/DTD/svg10.dtd">
<svg version="1.0" xmlns="http://www.w3.org/2000/svg"
 width="500.000000pt" height="500.000000pt" viewBox="0 0 500.000000 500.000000"
 preserveAspectRatio="xMidYMid meet">

<g transform="translate(0.000000,500.000000) scale(0.100000,-0.100000)"
fill="#000000" stroke="none">
<path d="M2390 3930 c-133 -24 -144 -28 -181 -61 -24 -21 -36 -26 -45 -18 -15
13 -62 0 -136 -37 -48 -24 -168 -128 -168 -146 0 -6 -11 -23 -25 -40 -35 -41
-47 -97 -38 -166 11 -76 33 -78 38 -3 3 38 10 61 26 77 12 13 26 24 30 24 3 0
11 -19 17 -43 15 -58 62 -120 106 -141 20 -9 68 -21 106 -25 39 -4 77 -14 87
-23 32 -28 85 -51 92 -39 8 13 193 -172 215 -215 8 -17 20 -62 26 -100 16
-106 19 -116 35 -110 8 3 15 1 15 -3 0 -5 -8 -12 -17 -16 -17 -6 -17 -7 0 -19
9 -7 17 -19 17 -26 0 -7 -8 -19 -17 -26 -17 -13 -17 -15 0 -28 13 -10 17 -21
12 -36 -4 -12 -1 -27 5 -35 7 -8 9 -22 6 -32 -7 -17 8 -33 32 -33 6 0 12 9 12
19 0 15 88 182 105 200 3 2 1 -13 -2 -33 -8 -48 18 -49 36 -1 32 89 135 59
171 -50 13 -41 2 -85 -38 -150 -60 -98 -129 -140 -162 -100 -15 18 -34 6 -25
-16 3 -8 20 -24 38 -34 30 -19 31 -20 10 -23 -20 -3 -23 -9 -22 -50 2 -72 12
-106 32 -110 16 -3 17 1 13 32 -3 20 -9 53 -12 74 -4 24 -2 34 4 27 10 -10 21
-71 25 -139 3 -51 23 -57 36 -11 18 66 124 218 159 230 10 2 22 15 27 27 6 13
19 24 30 26 11 2 30 21 44 45 13 23 37 66 54 96 24 43 32 50 39 37 19 -33 29
-16 23 37 -5 38 -2 63 8 87 15 33 16 34 22 13 11 -37 24 -26 18 15 -4 29 1 45
21 75 50 72 57 117 48 277 -9 154 -25 210 -75 270 -13 15 -27 46 -30 67 -15
93 -105 161 -225 171 -62 5 -62 5 -81 47 -24 55 -82 118 -126 139 -19 10 -61
19 -93 21 -31 2 -88 9 -127 14 -83 12 -75 13 -195 -9z m215 -9 l20 -8 -20 -6
c-11 -3 -47 0 -80 7 l-60 14 60 0 c33 0 69 -3 80 -7z m103 -22 c9 0 4 -5 -13
-10 -16 -5 -39 -6 -50 -2 l-20 6 20 8 c11 4 26 6 33 3 8 -2 21 -4 30 -5z m85
-5 c43 -22 86 -63 103 -99 8 -17 9 -22 2 -11 -36 52 -54 69 -99 91 -27 14 -49
28 -49 30 0 8 10 6 43 -11z m85 -143 c44 -66 47 -71 34 -71 -5 0 -18 17 -29
38 -12 20 -34 48 -48 62 -15 14 -32 34 -37 45 -25 45 37 -13 80 -74z m-891
-73 c-3 -8 -6 -5 -6 6 -1 11 2 17 5 13 3 -3 4 -12 1 -19z m1048 -2 c30 -14 29
-14 -15 -9 -25 3 -52 9 -60 14 -26 14 42 10 75 -5z m158 -59 c8 -12 18 -33 22
-47 7 -21 6 -23 -7 -12 -8 6 -29 34 -46 62 -29 47 -30 49 -7 34 13 -8 30 -25
38 -37z m-1293 -27 c0 -5 -9 -14 -20 -20 -19 -10 -20 -10 -8 9 13 22 28 28 28
11z m145 -194 c44 -29 32 -35 -20 -10 -31 14 -85 72 -85 90 0 4 15 -6 33 -23
17 -16 50 -42 72 -57z m872 -273 c-3 -10 -5 -2 -5 17 0 19 2 27 5 18 2 -10 2
-26 0 -35z"/>
<path d="M2010 3121 c-30 -10 -98 -45 -123 -65 -25 -19 -32 -76 -13 -101 14
-20 15 -19 53 17 46 44 124 85 181 94 22 3 43 13 47 22 7 19 4 22 -42 33 -45
10 -69 10 -103 0z m103 -28 c-7 -2 -19 -2 -25 0 -7 3 -2 5 12 5 14 0 19 -2 13
-5z"/>
<path d="M1903 2914 c-3 -9 4 -24 17 -36 18 -17 21 -28 17 -60 -3 -21 -2 -38
1 -36 4 2 29 14 55 26 27 12 45 26 42 32 -4 7 -12 7 -25 0 -31 -16 -40 -12
-40 20 0 17 2 30 5 30 2 0 23 -9 45 -21 39 -20 78 -20 65 1 -3 5 -30 21 -59
35 -61 29 -114 33 -123 9z"/>
<path d="M2793 1995 c-9 -25 5 -192 21 -252 7 -28 25 -77 39 -108 l26 -56 -24
-9 c-14 -5 -103 -25 -197 -45 -102 -21 -254 -63 -371 -101 -108 -36 -208 -64
-222 -62 -25 3 -25 3 42 143 l67 140 6 170 c6 168 2 201 -22 177 -8 -8 -14
-69 -18 -185 l-5 -172 -62 -125 c-76 -153 -82 -176 -54 -185 34 -10 127 12
286 69 103 37 207 65 330 90 181 36 273 60 287 74 4 4 -8 37 -27 73 -40 77
-62 162 -71 283 -7 85 -18 114 -31 81z"/>
<path d="M3690 1789 c-43 -83 -75 -133 -106 -161 -47 -44 -53 -64 -8 -29 15
12 28 20 29 19 2 -2 -13 -49 -32 -106 -19 -57 -32 -111 -30 -120 5 -20 2 -26
47 116 18 56 35 104 39 107 4 2 24 0 44 -5 20 -4 39 -4 42 0 3 5 -13 11 -35
15 -63 11 -57 19 73 110 54 38 94 71 88 73 -5 2 -46 -22 -90 -53 -45 -31 -81
-53 -81 -48 0 4 22 50 49 100 27 51 46 95 42 98 -5 2 -36 -50 -71 -116z"/>
<path d="M2845 1470 c-49 -10 -142 -27 -205 -39 -63 -11 -209 -50 -325 -87
-276 -86 -355 -94 -355 -33 0 23 -16 25 -24 3 -15 -38 30 -74 91 -74 42 0 53
3 338 90 128 39 262 72 370 90 200 35 227 42 233 58 5 15 -10 14 -123 -8z"/>
</g>
</svg>
